<?xml version="1.0" encoding="utf-8"?>
<!-- Generator: Adobe Illustrator 16.0.0, SVG Export Plug-In . SVG Version: 6.00 Build 0)  -->
<!DOCTYPE svg PUBLIC "-//W3C//DTD SVG 1.1//EN" "http://www.w3.org/Graphics/SVG/1.1/DTD/svg11.dtd">
<svg version="1.1" id="Layer_1" xmlns="http://www.w3.org/2000/svg" xmlns:xlink="http://www.w3.org/1999/xlink" x="0px" y="0px"
	 width="400px" height="390px" viewBox="0 0 400 390" enable-background="new 0 0 400 390" xml:space="preserve">
<g>
	<g>
		<path fill="#353535" d="M296.936,111.608c1.18,1.182,1.182,3.308,0,4.487L25.23,387.79c-1.282,1.41-3.331,1.41-4.6-0.002
			l-9.365-9.334c-1.279-1.183-1.279-3.221-0.012-4.643l271.694-271.693c1.182-1.19,3.472-1.189,4.652,0.018L296.936,111.608z"/>
		<path fill="#353535" d="M371.544,6.529c0.812,0.984,0.812,2.68,0,3.658l-81.604,81.487c-1.133,1.081-2.712,1.074-3.524-0.021
			l-4.656-4.53c-1.144-1.066-1.142-2.712,0-3.69l81.293-81.531c1.122-0.998,2.694-1.001,3.835,0.006L371.544,6.529z"/>
		<path fill="#353535" d="M384.38,19.403c0.927,1.023,0.925,2.673,0,3.659l-81.606,81.554c-0.811,0.977-2.71,0.977-3.521,0.001
			l-4.66-4.658c-1.14-0.978-1.14-2.705,0-3.688l81.533-81.479c0.884-1.017,2.517-1.017,3.595,0L384.38,19.403z"/>
		<path fill="#353535" d="M397.213,32.306c1.05,0.99,1.05,2.642,0,3.667l-81.604,81.477c-0.813,0.977-2.65,0.977-3.525,0
			l-4.655-4.653c-1.135-0.981-1.135-2.558,0-3.67l81.602-81.454c0.816-0.984,2.606-0.998,3.527,0L397.213,32.306z"/>
	</g>
	<g>
		<path fill="#353535" d="M110.374,102.131c1.344-1.203,3.308-1.205,4.65-0.013l271.693,271.693c1.182,1.418,1.181,3.46-0.001,4.641
			l-9.334,9.336c-1.196,1.412-3.47,1.412-4.652,0.002L101.038,116.094c-1.326-1.18-1.317-3.306,0.001-4.486L110.374,102.131z"/>
		<path fill="#353535" d="M5.374,27.673c0.989-0.987,2.657-0.987,3.65-0.001l81.522,81.448c0.977,1.119,0.976,2.698,0,3.675
			l-4.654,4.655c-0.979,0.978-2.652,0.977-3.662,0L0.759,35.973c-1.007-1.025-1.018-2.674,0.001-3.667L5.374,27.673z"/>
		<path fill="#353535" d="M18.262,14.788c1.006-1.019,2.67-1.014,3.668,0.002l81.453,81.48c0.995,0.977,0.995,2.71,0.006,3.687
			l-4.634,4.659c-1,0.977-2.579,0.977-3.56-0.001L13.634,23.061c-1.005-0.987-1.006-2.639,0-3.658L18.262,14.788z"/>
		<path fill="#353535" d="M31.132,1.908c0.987-1.002,2.671-1.003,3.651-0.005l81.588,81.531c0.984,0.978,0.983,2.704,0,3.689
			l-4.649,4.529c-0.981,1.104-2.712,1.102-3.688,0.002L26.507,10.185c-1.004-0.981-1.007-2.646,0-3.661L31.132,1.908z"/>
	</g>
</g>
</svg>
