<svg xmlns="http://www.w3.org/2000/svg" version="1.0" width="491.34228187060353" height="284.6845637412067" preserveAspectRatio="xMidYMid meet" style=""><rect id="backgroundrect" width="100%" height="100%" x="0" y="0" fill="none" stroke="none" class="" style=""/>


<g class="currentLayer" style=""><title>Layer 1</title><g transform="translate(0,382) scale(0.10000000149011612,-0.10000000149011612) " fill="#000000" stroke="none" id="svg_1" class="">
<path d="M1968.0356922025644,3615.015520625848 l-197.05311288497285,-195.42093368778853 l138.1513671856603,-138.82361409515033 l137.08042635476372,-137.75574014057224 l40.69575157407048,39.51133631938894 l40.69575157407048,39.51133631938894 l-96.38467478069323,97.17652986660524 c-52.47610071393299,53.39369772890397 -96.38467478069323,99.31227777576139 -96.38467478069323,102.51589963949563 c0,4.271495818312319 53.547041544829575,56.59731959263821 118.87443222952166,116.39826104901066 l118.87443222952166,109.99101732154219 l253.8129769224922,-253.08612723500482 l253.8129769224922,-252.01825328042673 l39.62481074317389,40.57921027396702 l39.62481074317389,39.51133631938894 l-297.7215509892524,293.66533750897185 l-296.65061015835585,293.66533750897185 l-197.05311288497285,-195.42093368778853 z" id="svg_2"/>
<path d="M2652.3668831454866,3671.612840218486 l-133.86760386207393,-133.48424432225994 l40.69575157407048,-39.51133631938894 l39.62481074317389,-40.57921027396702 l94.24279311890005,93.972908002871 c51.40515988303639,51.257949819747815 97.45561561158982,92.9050340482929 100.6684381042796,92.9050340482929 c4.283763323586366,0 59.972686530209124,-50.19007586516973 123.15819555310802,-112.12676523069834 l115.66160973683188,-112.12676523069834 l-257.02579941518195,-256.28974909873904 l-257.02579941518195,-256.28974909873904 l40.69575157407048,-39.51133631938894 l39.62481074317389,-40.57921027396702 l294.50872849656264,293.66533750897185 l295.57966932745927,294.73321146354994 l-195.98217205407627,194.35305973321047 c-107.09408308965915,106.78739545780795 -197.05311288497285,194.35305973321047 -201.3368762085592,194.35305973321047 c-3.2128224926897744,0 -65.32739068469208,-59.80094145637245 -139.2223080165569,-133.48424432225994 z" id="svg_3"/>
<path d="M2084.768242770293,3500.7530074859933 l-80.32056231724437,-80.09054659335595 l80.32056231724437,-80.09054659335595 l80.32056231724437,-80.09054659335595 l80.32056231724437,80.09054659335595 l80.32056231724437,80.09054659335595 l-80.32056231724437,80.09054659335595 l-80.32056231724437,80.09054659335595 l-80.32056231724437,-80.09054659335595 z" id="svg_4"/>
<path d="M2716.623332999282,3500.7530074859933 l-80.32056231724437,-80.09054659335595 l80.32056231724437,-80.09054659335595 l80.32056231724437,-80.09054659335595 l80.32056231724437,80.09054659335595 l80.32056231724437,80.09054659335595 l-80.32056231724437,80.09054659335595 l-80.32056231724437,80.09054659335595 l-80.32056231724437,-80.09054659335595 z" id="svg_5"/>
<path d="M2065.4913078141544,3086.4179131096985 l-292.3668468347695,-291.52958959981567 l195.98217205407627,-194.35305973321047 c107.09408308965915,-106.78739545780795 197.05311288497285,-194.35305973321047 201.3368762085592,-194.35305973321047 c3.2128224926897744,0 65.32739068469208,59.80094145637245 139.2223080165569,133.48424432225994 l133.86760386207393,133.48424432225994 l-40.69575157407048,39.51133631938894 l-39.62481074317389,40.57921027396702 l-94.24279311890005,-93.972908002871 c-51.40515988303639,-51.257949819747815 -97.45561561158982,-92.9050340482929 -100.6684381042796,-92.9050340482929 c-4.283763323586366,0 -59.972686530209124,50.19007586516973 -123.15819555310802,112.12676523069834 l-115.66160973683188,112.12676523069834 l257.02579941518195,256.28974909873904 l255.95485858428538,256.28974909873904 l-36.411988250484114,37.37558841023278 c-20.34787578703524,20.28960513698351 -38.55386991227729,37.37558841023278 -42.83763323586366,37.37558841023278 c-3.2128224926897744,0 -137.08042635476372,-131.34849641310376 -297.7215509892524,-291.52958959981567 z" id="svg_6"/>
<path d="M2397.482965392098,3182.5265690217257 l-77.10773982455459,-76.88692472962173 l80.32056231724437,-80.09054659335595 l80.32056231724437,-79.02267263877788 l74.9658581627614,76.88692472962173 c40.69575157407048,42.71495818312318 74.9658581627614,81.15842054793404 74.9658581627614,85.42991636624636 c0,8.542991636624636 -141.36418967835007,151.63810155008727 -151.0026571564194,151.63810155008727 c-2.141881661793183,0 -39.62481074317389,-35.23984050107662 -82.46244397903754,-77.9547986841998 z" id="svg_7"/>
<path d="M2242.1965449120917,3027.684845607904 l-39.62481074317389,-39.51133631938894 l292.3668468347695,-291.52958959981567 c160.64112463448873,-159.11321923213384 294.50872849656264,-290.46171564523763 298.79249182014905,-290.46171564523763 c4.283763323586366,0 95.31373394979664,87.56566427540251 201.3368762085592,194.35305973321047 l192.76934956138646,194.35305973321047 l-136.0094855238671,136.68786618599418 l-136.0094855238671,136.68786618599418 l-40.69575157407048,-39.51133631938894 l-40.69575157407048,-39.51133631938894 l98.52655644248642,-99.31227777576139 l98.52655644248642,-99.31227777576139 l-47.12139655945003,-49.122201910591656 c-26.773520772414788,-26.696848864451987 -81.39150314814096,-77.9547986841998 -121.01631389131484,-114.2625131398545 l-72.82397650096823,-64.07243727468476 l-254.88391775338877,253.08612723500482 l-253.8129769224922,252.01825328042673 l-39.62481074317389,-40.57921027396702 z" id="svg_8"/>
<path d="M2084.768242770293,2870.7073742849266 l-80.32056231724437,-80.09054659335595 l80.32056231724437,-80.09054659335595 l80.32056231724437,-80.09054659335595 l80.32056231724437,80.09054659335595 l80.32056231724437,80.09054659335595 l-80.32056231724437,80.09054659335595 l-80.32056231724437,80.09054659335595 l-80.32056231724437,-80.09054659335595 z" id="svg_9"/>
<path d="M2716.623332999282,2870.7073742849266 l-80.32056231724437,-80.09054659335595 l80.32056231724437,-80.09054659335595 l80.32056231724437,-80.09054659335595 l80.32056231724437,80.09054659335595 l80.32056231724437,80.09054659335595 l-80.32056231724437,80.09054659335595 l-80.32056231724437,80.09054659335595 l-80.32056231724437,-80.09054659335595 z" id="svg_10"/>
<path d="M1554.6525314764806,2155.2318247176136 c-5.354704154482958,-2.135747909156159 -23.560698279725013,-6.407243727468477 -39.62481074317389,-9.610865591202716 c-33.19916575779433,-7.475117682046556 -40.69575157407048,-27.764722819030066 -10.709408308965916,-27.764722819030066 c41.76669240496707,0 44.97951489765684,-18.153857227827352 44.97951489765684,-241.33951373464595 c0,-182.6064462328516 -2.141881661793183,-218.91416068850629 -17.135053294345465,-232.7965220980213 c-8.567526647172732,-9.610865591202716 -23.560698279725013,-17.085983273249273 -32.128224926897744,-17.085983273249273 c-8.567526647172732,0 -14.993171632552281,-4.271495818312319 -14.993171632552281,-10.678739545780795 c0,-6.407243727468477 39.62481074317389,-10.678739545780795 96.38467478069323,-10.678739545780795 c56.75986403751935,0 96.38467478069323,4.271495818312319 96.38467478069323,10.678739545780795 c0,6.407243727468477 -6.425644985379549,10.678739545780795 -14.993171632552281,10.678739545780795 c-8.567526647172732,0 -23.560698279725013,7.475117682046556 -32.128224926897744,17.085983273249273 c-14.993171632552281,13.882361409515033 -17.135053294345465,53.39369772890397 -17.135053294345465,266.9684886445199 l0,249.88250537127058 l-23.560698279725013,-1.0678739545780795 c-13.92223080165569,0 -28.91540243420797,-2.135747909156159 -35.34104741958752,-4.271495818312319 z" id="svg_11"/>
<path d="M1987.3126271587034,2136.0100935352084 c-43.90857406676025,-28.832596773608145 -62.11456819200231,-64.07243727468476 -70.68209483917504,-135.6199922314161 c-6.425644985379549,-52.32582377432589 -7.4965858162761405,-53.39369772890397 -41.76669240496707,-53.39369772890397 c-25.702579941518195,0 -36.411988250484114,-5.3393697728903975 -36.411988250484114,-16.01810931867119 c0,-11.746613500358874 11.780349139862507,-16.01810931867119 37.4829290813807,-16.01810931867119 l38.55386991227729,0 l-3.2128224926897744,-135.6199922314161 c-3.2128224926897744,-130.2806224585257 -4.283763323586366,-136.68786618599418 -26.773520772414788,-147.36660573177497 c-44.97951489765684,-19.22173118240543 -25.702579941518195,-26.696848864451987 71.75303567007163,-26.696848864451987 c100.6684381042796,0 118.87443222952166,8.542991636624636 64.25644985379549,28.832596773608145 l-32.128224926897744,11.746613500358874 l0,134.552118276838 l0,134.552118276838 l53.547041544829575,0 c40.69575157407048,0 53.547041544829575,4.271495818312319 53.547041544829575,16.01810931867119 c0,11.746613500358874 -12.851289970759098,16.01810931867119 -53.547041544829575,16.01810931867119 l-53.547041544829575,0 l0,69.41180704757517 c0,55.52944563806013 4.283763323586366,73.68330286588748 21.41881661793183,90.76928613913675 c26.773520772414788,26.696848864451987 51.40515988303639,26.696848864451987 85.67526647172733,0 c33.19916575779433,-25.628974909873907 63.1855090228989,-26.696848864451987 71.75303567007163,-3.2036218637342384 c4.283763323586366,10.678739545780795 -2.141881661793183,24.561100955295828 -17.135053294345465,37.37558841023278 c-36.411988250484114,27.764722819030066 -116.73255056772847,25.628974909873907 -162.7830062962819,-5.3393697728903975 z" id="svg_12"/>
<path d="M3632.277743415868,2155.2318247176136 c-5.354704154482958,-2.135747909156159 -23.560698279725013,-6.407243727468477 -39.62481074317389,-9.610865591202716 c-33.19916575779433,-7.475117682046556 -40.69575157407048,-27.764722819030066 -10.709408308965916,-27.764722819030066 c41.76669240496707,0 44.97951489765684,-18.153857227827352 44.97951489765684,-248.81463141669252 l0,-223.1856565068186 l-32.128224926897744,-11.746613500358874 c-54.617982375726164,-20.28960513698351 -36.411988250484114,-28.832596773608145 64.25644985379549,-28.832596773608145 c92.10091145710687,0 125.30007721490121,11.746613500358874 70.68209483917504,25.628974909873907 c-13.92223080165569,3.2036218637342384 -27.84446160331138,17.085983273249273 -32.128224926897744,29.900470728186225 c-3.2128224926897744,13.882361409515033 -6.425644985379549,131.34849641310376 -6.425644985379549,262.6969928262075 l0,237.06801791633364 l-23.560698279725013,-1.0678739545780795 c-13.92223080165569,0 -28.91540243420797,-2.135747909156159 -35.34104741958752,-4.271495818312319 z" id="svg_13"/>
<path d="M17.852439139871464,2121.059858171115 c0,-5.3393697728903975 13.92223080165569,-17.085983273249273 32.128224926897744,-26.696848864451987 c35.34104741958752,-20.28960513698351 39.62481074317389,-29.900470728186225 136.0094855238671,-293.66533750897185 c38.55386991227729,-107.85526941238602 74.9658581627614,-195.42093368778853 79.24962148634778,-195.42093368778853 c12.851289970759098,0 32.128224926897744,41.6470842285451 95.31373394979664,211.43904300645974 c32.128224926897744,83.2941684570902 59.972686530209124,151.63810155008727 63.1855090228989,151.63810155008727 c3.2128224926897744,0 32.128224926897744,-75.81905077504364 63.1855090228989,-168.72408482333654 c63.1855090228989,-185.8100680965858 71.75303567007163,-205.03179927899126 86.74620730262392,-189.01368996032005 c5.354704154482958,6.407243727468477 47.12139655945003,108.9231433669641 93.17185228800346,229.59290023428707 c79.24962148634778,210.37116905188165 109.23596475145233,266.9684886445199 140.2932488474535,266.9684886445199 c7.4965858162761405,0 13.92223080165569,5.3393697728903975 13.92223080165569,10.678739545780795 c0,6.407243727468477 -34.27010658869093,10.678739545780795 -80.32056231724437,10.678739545780795 c-77.10773982455459,0 -103.88126059696937,-12.814487454936952 -58.901745699312535,-26.696848864451987 c12.851289970759098,-4.271495818312319 21.41881661793183,-16.01810931867119 21.41881661793183,-29.900470728186225 c0,-25.628974909873907 -109.23596475145233,-338.51604360125117 -117.80349139862507,-338.51604360125117 c-3.2128224926897744,0 -29.986343265104562,80.09054659335595 -58.901745699312535,177.26707645996117 c-54.617982375726164,185.8100680965858 -54.617982375726164,195.42093368778853 -2.141881661793183,196.48880764236662 c9.638467478069323,0 18.205994125242057,5.3393697728903975 18.205994125242057,10.678739545780795 c0,6.407243727468477 -42.83763323586366,10.678739545780795 -107.09408308965915,10.678739545780795 c-98.52655644248642,0 -134.93854469297054,-10.678739545780795 -87.8171481335205,-25.628974909873907 c10.709408308965916,-3.2036218637342384 26.773520772414788,-19.22173118240543 36.411988250484114,-35.23984050107662 c16.064112463448872,-28.832596773608145 14.993171632552281,-35.23984050107662 -38.55386991227729,-181.5385722782735 c-29.986343265104562,-84.36204241166827 -57.83080486841594,-152.70597550466536 -61.04362736110571,-152.70597550466536 c-3.2128224926897744,0 -28.91540243420797,73.68330286588748 -57.83080486841594,163.38471505044615 c-27.84446160331138,88.63353822998059 -53.547041544829575,168.72408482333654 -56.75986403751935,176.1992025053831 c-2.141881661793183,8.542991636624636 8.567526647172732,19.22173118240543 28.91540243420797,26.696848864451987 c18.205994125242057,6.407243727468477 33.19916575779433,16.01810931867119 33.19916575779433,20.28960513698351 c0,4.271495818312319 -48.192337390346616,8.542991636624636 -107.09408308965915,8.542991636624636 c-58.901745699312535,0 -107.09408308965915,-3.2036218637342384 -107.09408308965915,-7.475117682046556 z" id="svg_14"/>
<path d="M2320.375225567543,2118.924110261959 c0,-5.3393697728903975 13.92223080165569,-11.746613500358874 31.057284096001155,-14.950235364093112 c19.276934956138646,-4.271495818312319 33.19916575779433,-14.950235364093112 37.4829290813807,-30.968344682764304 c3.2128224926897744,-13.882361409515033 6.425644985379549,-109.99101732154219 6.425644985379549,-213.5747909156159 c0,-176.1992025053831 -1.0709408308965915,-191.14943786947623 -21.41881661793183,-211.43904300645974 c-11.780349139862507,-11.746613500358874 -28.91540243420797,-21.35747909156159 -37.4829290813807,-21.35747909156159 c-8.567526647172732,0 -16.064112463448872,-4.271495818312319 -16.064112463448872,-10.678739545780795 c0,-6.407243727468477 42.83763323586366,-10.678739545780795 107.09408308965915,-10.678739545780795 c109.23596475145233,0 130.65478136938415,7.475117682046556 77.10773982455459,27.764722819030066 c-35.34104741958752,13.882361409515033 -44.97951489765684,44.85070609227934 -44.97951489765684,149.50235364093112 l0,68.34393309299709 l139.2223080165569,0 l140.2932488474535,0 l-3.2128224926897744,-98.24440382118331 l-3.2128224926897744,-99.31227777576139 l-34.27010658869093,-16.01810931867119 c-19.276934956138646,-8.542991636624636 -35.34104741958752,-19.22173118240543 -35.34104741958752,-23.49322700071775 c0,-5.3393697728903975 48.192337390346616,-8.542991636624636 107.09408308965915,-8.542991636624636 c58.901745699312535,0 107.09408308965915,4.271495818312319 107.09408308965915,8.542991636624636 c0,4.271495818312319 -13.92223080165569,13.882361409515033 -32.128224926897744,20.28960513698351 l-32.128224926897744,11.746613500358874 l0,221.04990859766244 l0,221.04990859766244 l32.128224926897744,11.746613500358874 c55.68892320662276,21.35747909156159 35.34104741958752,28.832596773608145 -69.61115400827845,28.832596773608145 c-61.04362736110571,0 -101.73937893517619,-4.271495818312319 -101.73937893517619,-10.678739545780795 c0,-5.3393697728903975 6.425644985379549,-10.678739545780795 14.993171632552281,-10.678739545780795 c37.4829290813807,0 49.26327822124321,-30.968344682764304 49.26327822124321,-129.2127485039476 l0,-95.04078195744907 l-139.2223080165569,0 l-139.2223080165569,0 l0,68.34393309299709 c0,104.65164754865178 9.638467478069323,135.6199922314161 44.97951489765684,149.50235364093112 c53.547041544829575,20.28960513698351 32.128224926897744,27.764722819030066 -77.10773982455459,27.764722819030066 c-58.901745699312535,0 -107.09408308965915,-4.271495818312319 -107.09408308965915,-9.610865591202716 z" id="svg_15"/>
<path d="M1074.8710392348073,1956.6072691660906 c-46.05045572855344,-7.475117682046556 -86.74620730262392,-34.171966546498545 -118.87443222952166,-77.9547986841998 c-17.135053294345465,-22.42535304613967 -22.48975744882842,-44.85070609227934 -22.48975744882842,-96.10865591202715 c0,-56.59731959263821 4.283763323586366,-72.61542891130941 29.986343265104562,-105.71952150322987 c39.62481074317389,-52.32582377432589 83.53338480993413,-72.61542891130941 152.073597987316,-72.61542891130941 c114.59066890593529,0 187.4146454069035,72.61542891130941 187.4146454069035,186.8779420511639 c0,107.85526941238602 -108.16502392055574,185.8100680965858 -228.110396980974,165.52046295960233 zm98.52655644248642,-48.05432795601357 c31.057284096001155,-22.42535304613967 54.617982375726164,-76.88692472962173 54.617982375726164,-127.07700059479146 c0,-121.73763082190105 -107.09408308965915,-187.945816005742 -182.05994125242054,-114.2625131398545 c-56.75986403751935,56.59731959263821 -52.47610071393299,190.08156391489814 7.4965858162761405,236.00014396175555 c33.19916575779433,26.696848864451987 85.67526647172733,28.832596773608145 119.94537306041825,5.3393697728903975 z" id="svg_16"/>
<path d="M4673.232231047355,1956.6072691660906 c-46.05045572855344,-7.475117682046556 -86.74620730262392,-34.171966546498545 -118.87443222952166,-77.9547986841998 c-17.135053294345465,-22.42535304613967 -22.48975744882842,-44.85070609227934 -22.48975744882842,-96.10865591202715 c0,-56.59731959263821 4.283763323586366,-72.61542891130941 29.986343265104562,-105.71952150322987 c39.62481074317389,-52.32582377432589 83.53338480993413,-72.61542891130941 152.073597987316,-72.61542891130941 c114.59066890593529,0 187.4146454069035,72.61542891130941 187.4146454069035,186.8779420511639 c0,107.85526941238602 -108.16502392055574,185.8100680965858 -228.110396980974,165.52046295960233 zm98.52655644248642,-48.05432795601357 c31.057284096001155,-22.42535304613967 54.617982375726164,-76.88692472962173 54.617982375726164,-127.07700059479146 c0,-121.73763082190105 -107.09408308965915,-187.945816005742 -182.05994125242054,-114.2625131398545 c-56.75986403751935,56.59731959263821 -52.47610071393299,190.08156391489814 7.4965858162761405,236.00014396175555 c33.19916575779433,26.696848864451987 85.67526647172733,28.832596773608145 119.94537306041825,5.3393697728903975 z" id="svg_17"/>
<path d="M3144.9996653579187,1933.114042165373 c-110.30690558234892,-73.68330286588748 -106.02314225876256,-258.4254970078952 7.4965858162761405,-311.8191947367992 c51.40515988303639,-24.561100955295828 142.43513050924668,-21.35747909156159 185.27276374511032,8.542991636624636 c37.4829290813807,24.561100955295828 53.547041544829575,50.19007586516973 32.128224926897744,50.19007586516973 c-7.4965858162761405,0 -24.631639110621606,-9.610865591202716 -39.62481074317389,-21.35747909156159 c-41.76669240496707,-32.03621863734238 -101.73937893517619,-28.832596773608145 -143.50607134014325,8.542991636624636 c-28.91540243420797,25.628974909873907 -35.34104741958752,39.51133631938894 -39.62481074317389,90.76928613913675 l-4.283763323586366,60.868815410950525 l117.80349139862507,0 c65.32739068469208,0 121.01631389131484,4.271495818312319 124.22913638400462,8.542991636624636 c11.780349139862507,18.153857227827352 -16.064112463448872,87.56566427540251 -43.90857406676025,108.9231433669641 c-40.69575157407048,30.968344682764304 -147.78983466372964,29.900470728186225 -195.98217205407627,-3.2036218637342384 zm157.42830214179895,-38.44346236481086 c6.425644985379549,-14.950235364093112 10.709408308965916,-30.968344682764304 7.4965858162761405,-35.23984050107662 c-3.2128224926897744,-4.271495818312319 -41.76669240496707,-8.542991636624636 -85.67526647172733,-8.542991636624636 l-80.32056231724437,0 l17.135053294345465,30.968344682764304 c19.276934956138646,37.37558841023278 31.057284096001155,42.71495818312318 85.67526647172733,40.57921027396702 c33.19916575779433,-2.135747909156159 44.97951489765684,-7.475117682046556 55.68892320662276,-27.764722819030066 z" id="svg_18"/>
<path d="M3916.0770636034645,1949.1321514840442 c0,-5.3393697728903975 11.780349139862507,-14.950235364093112 26.773520772414788,-21.35747909156159 c25.702579941518195,-11.746613500358874 26.773520772414788,-17.085983273249273 26.773520772414788,-100.38015173033946 c1.0709408308965915,-106.78739545780795 12.851289970759098,-176.1992025053831 35.34104741958752,-197.55668159694468 c38.55386991227729,-38.44346236481086 139.2223080165569,-34.171966546498545 183.13088208331715,6.407243727468477 c32.128224926897744,29.900470728186225 38.55386991227729,28.832596773608145 38.55386991227729,-10.678739545780795 c0,-25.628974909873907 3.2128224926897744,-32.03621863734238 17.135053294345465,-26.696848864451987 c9.638467478069323,3.2036218637342384 35.34104741958752,6.407243727468477 58.901745699312535,6.407243727468477 c29.986343265104562,0 41.76669240496707,4.271495818312319 41.76669240496707,16.01810931867119 c0,9.610865591202716 -9.638467478069323,16.01810931867119 -25.702579941518195,16.01810931867119 c-21.41881661793183,0 -25.702579941518195,6.407243727468477 -32.128224926897744,49.122201910591656 c-3.2128224926897744,27.764722819030066 -6.425644985379549,99.31227777576139 -6.425644985379549,160.1810931867119 l0,111.05889127612026 l-58.901745699312535,0 c-62.11456819200231,0 -77.10773982455459,-14.950235364093112 -32.128224926897744,-32.03621863734238 c25.702579941518195,-9.610865591202716 26.773520772414788,-13.882361409515033 26.773520772414788,-97.17652986660524 c0,-131.34849641310376 -33.19916575779433,-185.8100680965858 -110.30690558234892,-178.33495041453926 c-50.3342190521398,5.3393697728903975 -61.04362736110571,35.23984050107662 -61.04362736110571,182.6064462328516 l0,124.94125268563529 l-64.25644985379549,0 c-35.34104741958752,0 -64.25644985379549,-4.271495818312319 -64.25644985379549,-8.542991636624636 z" id="svg_19"/>
<path d="M2609.529249909623,1258.2177028720266 c0,-44.85070609227934 -2.141881661793183,-48.05432795601357 -20.34787578703524,-37.37558841023278 c-32.128224926897744,16.01810931867119 -70.68209483917504,12.814487454936952 -97.45561561158982,-8.542991636624636 c-19.276934956138646,-14.950235364093112 -25.702579941518195,-34.171966546498545 -29.986343265104562,-80.09054659335595 c-4.283763323586366,-53.39369772890397 -2.141881661793183,-61.93668936552861 22.48975744882842,-86.49779032082444 c28.91540243420797,-28.832596773608145 69.61115400827845,-35.23984050107662 104.95220142786597,-17.085983273249273 c13.92223080165569,7.475117682046556 20.34787578703524,7.475117682046556 20.34787578703524,0 c0,-5.3393697728903975 7.4965858162761405,-10.678739545780795 16.064112463448872,-10.678739545780795 c13.92223080165569,0 16.064112463448872,23.49322700071775 16.064112463448872,144.16298386804073 c0,120.66975686732297 -2.141881661793183,144.16298386804073 -16.064112463448872,144.16298386804073 c-11.780349139862507,0 -16.064112463448872,-12.814487454936952 -16.064112463448872,-48.05432795601357 zm-10.709408308965916,-79.02267263877788 c5.354704154482958,-11.746613500358874 10.709408308965916,-36.307714455654704 10.709408308965916,-54.46157168348205 c0,-53.39369772890397 -17.135053294345465,-74.75117682046556 -58.901745699312535,-74.75117682046556 c-41.76669240496707,0 -58.901745699312535,21.35747909156159 -58.901745699312535,74.75117682046556 c0,53.39369772890397 17.135053294345465,74.75117682046556 58.901745699312535,74.75117682046556 c25.702579941518195,0 40.69575157407048,-6.407243727468477 48.192337390346616,-20.28960513698351 z" id="svg_20"/>
<path d="M3316.3501983013734,1162.1090469599994 c0,-88.63353822998059 4.283763323586366,-144.16298386804073 10.709408308965916,-144.16298386804073 c6.425644985379549,0 10.709408308965916,55.52944563806013 10.709408308965916,144.16298386804073 c0,88.63353822998059 -4.283763323586366,144.16298386804073 -10.709408308965916,144.16298386804073 c-6.425644985379549,0 -10.709408308965916,-55.52944563806013 -10.709408308965916,-144.16298386804073 z" id="svg_21"/>
<path d="M4228.791786225269,1258.2177028720266 c3.2128224926897744,-39.51133631938894 1.0709408308965915,-46.9864540014355 -12.851289970759098,-41.6470842285451 c-77.10773982455459,34.171966546498545 -132.79666303117733,-3.2036218637342384 -132.79666303117733,-91.83716009371483 c0,-88.63353822998059 67.46927234648527,-134.552118276838 130.65478136938415,-89.70141218455868 c21.41881661793183,14.950235364093112 23.560698279725013,14.950235364093112 23.560698279725013,0 c0,-9.610865591202716 5.354704154482958,-17.085983273249273 10.709408308965916,-17.085983273249273 c6.425644985379549,0 10.709408308965916,55.52944563806013 10.709408308965916,144.16298386804073 c0,124.94125268563529 -2.141881661793183,144.16298386804073 -17.135053294345465,144.16298386804073 c-13.92223080165569,0 -16.064112463448872,-9.610865591202716 -12.851289970759098,-48.05432795601357 zm-14.993171632552281,-71.54755495673132 c17.135053294345465,-17.085983273249273 17.135053294345465,-106.78739545780795 0,-123.87337873105722 c-18.205994125242057,-18.153857227827352 -67.46927234648527,-16.01810931867119 -83.53338480993413,3.2036218637342384 c-7.4965858162761405,9.610865591202716 -13.92223080165569,35.23984050107662 -13.92223080165569,58.733067501794366 c0,23.49322700071775 6.425644985379549,49.122201910591656 13.92223080165569,58.733067501794366 c16.064112463448872,19.22173118240543 65.32739068469208,21.35747909156159 83.53338480993413,3.2036218637342384 z" id="svg_22"/>
<path d="M750.37596747314,1283.8466777819003 c-10.709408308965916,-18.153857227827352 13.92223080165569,-38.44346236481086 28.91540243420797,-23.49322700071775 c12.851289970759098,12.814487454936952 4.283763323586366,35.23984050107662 -11.780349139862507,35.23984050107662 c-5.354704154482958,0 -12.851289970759098,-5.3393697728903975 -17.135053294345465,-11.746613500358874 z" id="svg_23"/>
<path d="M1428.2815134306823,1159.9732990508433 c19.276934956138646,-74.75117682046556 38.55386991227729,-137.75574014057224 40.69575157407048,-139.8914880497284 c16.064112463448872,-17.085983273249273 37.4829290813807,20.28960513698351 64.25644985379549,116.39826104901066 l31.057284096001155,111.05889127612026 l29.986343265104562,-96.10865591202715 c16.064112463448872,-52.32582377432589 29.986343265104562,-102.51589963949563 29.986343265104562,-109.99101732154219 c0,-13.882361409515033 28.91540243420797,-29.900470728186225 38.55386991227729,-20.28960513698351 c3.2128224926897744,2.135747909156159 21.41881661793183,65.14031122926285 40.69575157407048,139.8914880497284 c32.128224926897744,119.6018829127449 34.27010658869093,134.552118276838 18.205994125242057,134.552118276838 c-13.92223080165569,0 -24.631639110621606,-24.561100955295828 -44.97951489765684,-108.9231433669641 l-27.84446160331138,-109.99101732154219 l-34.27010658869093,109.99101732154219 c-44.97951489765684,142.02723595888457 -59.972686530209124,143.09510991346264 -97.45561561158982,5.3393697728903975 c-14.993171632552281,-54.46157168348205 -29.986343265104562,-100.38015173033946 -33.19916575779433,-103.5837735940737 c-3.2128224926897744,-3.2036218637342384 -17.135053294345465,41.6470842285451 -31.057284096001155,100.38015173033946 c-19.276934956138646,82.22629450251212 -28.91540243420797,106.78739545780795 -42.83763323586366,106.78739545780795 c-16.064112463448872,0 -13.92223080165569,-16.01810931867119 18.205994125242057,-135.6199922314161 z" id="svg_24"/>
<path d="M756.8016124585196,1124.7334585497665 c0,-87.56566427540251 3.2128224926897744,-106.78739545780795 16.064112463448872,-106.78739545780795 c12.851289970759098,0 16.064112463448872,19.22173118240543 16.064112463448872,106.78739545780795 c0,87.56566427540251 -3.2128224926897744,106.78739545780795 -16.064112463448872,106.78739545780795 c-12.851289970759098,0 -16.064112463448872,-19.22173118240543 -16.064112463448872,-106.78739545780795 z" id="svg_25"/>
<path d="M928.1521454019743,1124.7334585497665 c0,-87.56566427540251 3.2128224926897744,-106.78739545780795 16.064112463448872,-106.78739545780795 c12.851289970759098,0 16.064112463448872,14.950235364093112 16.064112463448872,72.61542891130941 c0,89.70141218455868 13.92223080165569,112.12676523069834 64.25644985379549,106.78739545780795 l37.4829290813807,-3.2036218637342384 l3.2128224926897744,-87.56566427540251 c2.141881661793183,-69.41180704757517 6.425644985379549,-88.63353822998059 18.205994125242057,-88.63353822998059 c12.851289970759098,0 16.064112463448872,18.153857227827352 16.064112463448872,88.63353822998059 c0,73.68330286588748 -3.2128224926897744,92.9050340482929 -19.276934956138646,106.78739545780795 c-23.560698279725013,21.35747909156159 -77.10773982455459,23.49322700071775 -97.45561561158982,5.3393697728903975 c-11.780349139862507,-10.678739545780795 -14.993171632552281,-10.678739545780795 -19.276934956138646,0 c-3.2128224926897744,6.407243727468477 -11.780349139862507,12.814487454936952 -20.34787578703524,12.814487454936952 c-11.780349139862507,0 -14.993171632552281,-21.35747909156159 -14.993171632552281,-106.78739545780795 z" id="svg_26"/>
<path d="M1865.2253724364916,1204.8240051431226 c-21.41881661793183,-20.28960513698351 -26.773520772414788,-36.307714455654704 -26.773520772414788,-80.09054659335595 c0,-69.41180704757517 32.128224926897744,-106.78739545780795 91.02997062621027,-106.78739545780795 c58.901745699312535,0 91.02997062621027,37.37558841023278 91.02997062621027,106.78739545780795 c0,69.41180704757517 -32.128224926897744,106.78739545780795 -91.02997062621027,106.78739545780795 c-26.773520772414788,0 -47.12139655945003,-8.542991636624636 -64.25644985379549,-26.696848864451987 zm112.44878724414211,-25.628974909873907 c5.354704154482958,-11.746613500358874 10.709408308965916,-36.307714455654704 10.709408308965916,-54.46157168348205 c0,-52.32582377432589 -17.135053294345465,-74.75117682046556 -56.75986403751935,-74.75117682046556 c-47.12139655945003,0 -61.04362736110571,17.085983273249273 -61.04362736110571,74.75117682046556 c0,26.696848864451987 5.354704154482958,54.46157168348205 12.851289970759098,61.93668936552861 c21.41881661793183,21.35747909156159 81.39150314814096,16.01810931867119 94.24279311890005,-7.475117682046556 z" id="svg_27"/>
<path d="M2159.7341009330544,1124.7334585497665 c0,-87.56566427540251 3.2128224926897744,-106.78739545780795 16.064112463448872,-106.78739545780795 c12.851289970759098,0 16.064112463448872,16.01810931867119 16.064112463448872,77.9547986841998 c0,87.56566427540251 9.638467478069323,103.5837735940737 59.972686530209124,103.5837735940737 c41.76669240496707,0 47.12139655945003,-11.746613500358874 47.12139655945003,-107.85526941238602 c0,-58.733067501794366 3.2128224926897744,-73.68330286588748 16.064112463448872,-73.68330286588748 c12.851289970759098,0 16.064112463448872,17.085983273249273 16.064112463448872,85.42991636624636 c0,71.54755495673132 -3.2128224926897744,88.63353822998059 -21.41881661793183,106.78739545780795 c-23.560698279725013,23.49322700071775 -64.25644985379549,27.764722819030066 -99.59749727338301,9.610865591202716 c-17.135053294345465,-9.610865591202716 -23.560698279725013,-9.610865591202716 -26.773520772414788,0 c-2.141881661793183,6.407243727468477 -8.567526647172732,11.746613500358874 -13.92223080165569,11.746613500358874 c-5.354704154482958,0 -9.638467478069323,-48.05432795601357 -9.638467478069323,-106.78739545780795 z" id="svg_28"/>
<path d="M2801.227658640113,1200.5525093248102 c-84.60432564083072,-84.36204241166827 9.638467478069323,-219.98203464308438 123.15819555310802,-176.1992025053831 c34.27010658869093,12.814487454936952 16.064112463448872,25.628974909873907 -35.34104741958752,25.628974909873907 c-42.83763323586366,0 -56.75986403751935,4.271495818312319 -69.61115400827845,23.49322700071775 c-9.638467478069323,12.814487454936952 -17.135053294345465,27.764722819030066 -17.135053294345465,32.03621863734238 c0,5.3393697728903975 31.057284096001155,8.542991636624636 69.61115400827845,8.542991636624636 l69.61115400827845,0 l0,35.23984050107662 c0,76.88692472962173 -83.53338480993413,107.85526941238602 -140.2932488474535,51.257949819747815 zm101.73937893517619,-18.153857227827352 c11.780349139862507,-32.03621863734238 6.425644985379549,-36.307714455654704 -47.12139655945003,-36.307714455654704 c-57.83080486841594,0 -58.901745699312535,1.0678739545780795 -42.83763323586366,33.10409259192046 c13.92223080165569,25.628974909873907 80.32056231724437,28.832596773608145 89.95902979531368,3.2036218637342384 z" id="svg_29"/>
<path d="M3080.7432155041233,1124.7334585497665 c0,-87.56566427540251 3.2128224926897744,-106.78739545780795 16.064112463448872,-106.78739545780795 c12.851289970759098,0 16.064112463448872,14.950235364093112 16.064112463448872,72.61542891130941 c0,80.09054659335595 12.851289970759098,105.71952150322987 52.47610071393299,111.05889127612026 c14.993171632552281,2.135747909156159 27.84446160331138,9.610865591202716 31.057284096001155,17.085983273249273 c5.354704154482958,18.153857227827352 -41.76669240496707,16.01810931867119 -70.68209483917504,-4.271495818312319 c-21.41881661793183,-14.950235364093112 -23.560698279725013,-14.950235364093112 -23.560698279725013,0 c0,9.610865591202716 -4.283763323586366,17.085983273249273 -10.709408308965916,17.085983273249273 c-6.425644985379549,0 -10.709408308965916,-42.71495818312318 -10.709408308965916,-106.78739545780795 z" id="svg_30"/>
<path d="M3517.6870745099322,1224.045736325528 c-10.709408308965916,-2.135747909156159 -19.276934956138646,-10.678739545780795 -19.276934956138646,-18.153857227827352 c0,-8.542991636624636 17.135053294345465,-12.814487454936952 51.40515988303639,-12.814487454936952 c43.90857406676025,1.0678739545780795 50.3342190521398,-2.135747909156159 53.547041544829575,-22.42535304613967 c3.2128224926897744,-21.35747909156159 -1.0709408308965915,-24.561100955295828 -37.4829290813807,-24.561100955295828 c-61.04362736110571,0 -91.02997062621027,-24.561100955295828 -86.74620730262392,-72.61542891130941 c4.283763323586366,-49.122201910591656 42.83763323586366,-67.276059138419 97.45561561158982,-46.9864540014355 c22.48975744882842,8.542991636624636 35.34104741958752,9.610865591202716 37.4829290813807,2.135747909156159 c2.141881661793183,-5.3393697728903975 8.567526647172732,-10.678739545780795 13.92223080165569,-10.678739545780795 c5.354704154482958,0 9.638467478069323,40.57921027396702 9.638467478069323,88.63353822998059 c0,73.68330286588748 -3.2128224926897744,92.9050340482929 -19.276934956138646,106.78739545780795 c-19.276934956138646,17.085983273249273 -59.972686530209124,21.35747909156159 -100.6684381042796,10.678739545780795 zm87.8171481335205,-129.2127485039476 c0,-28.832596773608145 -21.41881661793183,-44.85070609227934 -61.04362736110571,-44.85070609227934 c-29.986343265104562,0 -35.34104741958752,4.271495818312319 -35.34104741958752,24.561100955295828 c0,34.171966546498545 7.4965858162761405,39.51133631938894 55.68892320662276,39.51133631938894 c32.128224926897744,0 40.69575157407048,-4.271495818312319 40.69575157407048,-19.22173118240543 z" id="svg_31"/>
<path d="M3776.854755586908,1124.7334585497665 c0,-87.56566427540251 3.2128224926897744,-106.78739545780795 16.064112463448872,-106.78739545780795 c12.851289970759098,0 16.064112463448872,14.950235364093112 16.064112463448872,72.61542891130941 c0,89.70141218455868 13.92223080165569,112.12676523069834 64.25644985379549,106.78739545780795 l37.4829290813807,-3.2036218637342384 l3.2128224926897744,-87.56566427540251 c2.141881661793183,-69.41180704757517 6.425644985379549,-88.63353822998059 18.205994125242057,-88.63353822998059 c12.851289970759098,0 16.064112463448872,18.153857227827352 16.064112463448872,89.70141218455868 c0,81.15842054793404 -2.141881661793183,91.83716009371483 -23.560698279725013,106.78739545780795 c-27.84446160331138,19.22173118240543 -65.32739068469208,22.42535304613967 -94.24279311890005,6.407243727468477 c-13.92223080165569,-7.475117682046556 -22.48975744882842,-7.475117682046556 -26.773520772414788,0 c-18.205994125242057,29.900470728186225 -26.773520772414788,1.0678739545780795 -26.773520772414788,-96.10865591202715 z" id="svg_32"/>
</g></g></svg>